<svg xmlns="http://www.w3.org/2000/svg" width="72" height="72" viewBox="0 0 72 72">
  <g id="Backend_Icon" data-name="Backend Icon" transform="translate(-1 -1)">
    <path id="Path_76" data-name="Path 76" d="M67.843,45.262H66.2l-1.569-3.139,1.351-1.352a1.187,1.187,0,0,0,0-1.681L60.94,34.048a1.187,1.187,0,0,0-1.681,0L57.908,35.4,54.77,33.831V32.188A1.189,1.189,0,0,0,53.581,31H46.45a1.189,1.189,0,0,0-1.188,1.188v1.642L42.123,35.4l-1.351-1.351a1.187,1.187,0,0,0-1.681,0L34.048,39.09a1.187,1.187,0,0,0,0,1.681L35.4,42.123l-1.569,3.139H32.188A1.188,1.188,0,0,0,31,46.45v7.131a1.188,1.188,0,0,0,1.188,1.188h1.642L35.4,57.908l-1.351,1.352a1.187,1.187,0,0,0,0,1.681l5.043,5.042a1.187,1.187,0,0,0,1.681,0l1.351-1.351L45.262,66.2v1.642a1.188,1.188,0,0,0,1.188,1.188h7.131a1.188,1.188,0,0,0,1.188-1.188V66.2l3.139-1.569,1.351,1.351a1.187,1.187,0,0,0,1.681,0l5.043-5.042a1.187,1.187,0,0,0,0-1.681l-1.351-1.352L66.2,54.77h1.642a1.188,1.188,0,0,0,1.188-1.188V46.45A1.188,1.188,0,0,0,67.843,45.262Zm-1.188,7.131H65.466a1.19,1.19,0,0,0-1.064.657l-2.281,4.561a1.188,1.188,0,0,0,.223,1.372L63.462,60.1,60.1,63.461l-1.117-1.116a1.186,1.186,0,0,0-1.372-.223L53.05,64.4a1.19,1.19,0,0,0-.657,1.064v1.188H47.639V65.466a1.19,1.19,0,0,0-.657-1.064L42.42,62.121a1.182,1.182,0,0,0-1.371.223l-1.117,1.116L36.569,60.1l1.117-1.117a1.188,1.188,0,0,0,.223-1.372L35.629,53.05a1.19,1.19,0,0,0-1.064-.657H33.377V47.639h1.188a1.19,1.19,0,0,0,1.064-.657L37.91,42.42a1.188,1.188,0,0,0-.223-1.371l-1.117-1.117,3.362-3.361,1.117,1.116a1.186,1.186,0,0,0,1.371.223l4.561-2.281a1.19,1.19,0,0,0,.657-1.064V33.377h4.754v1.188a1.19,1.19,0,0,0,.657,1.064l4.561,2.281a1.188,1.188,0,0,0,1.372-.223L60.1,36.57l3.362,3.361-1.117,1.117a1.188,1.188,0,0,0-.223,1.371L64.4,46.981a1.19,1.19,0,0,0,1.064.657h1.188Z" transform="translate(3.969 3.969)" fill="#f85f00"/>
    <path id="Path_77" data-name="Path 77" d="M48.885,37A11.885,11.885,0,1,0,60.77,48.885,11.9,11.9,0,0,0,48.885,37Zm0,21.393a9.508,9.508,0,1,1,9.508-9.508A9.519,9.519,0,0,1,48.885,58.393Z" transform="translate(5.1 5.1)" fill="#f85f00"/>
    <path id="Path_78" data-name="Path 78" d="M38.9,23.45A15.45,15.45,0,1,0,23.45,38.9,15.468,15.468,0,0,0,38.9,23.45ZM23.45,36.523A13.073,13.073,0,1,1,36.523,23.45,13.089,13.089,0,0,1,23.45,36.523Z" transform="translate(1.319 1.319)" fill="#f85f00"/>
    <path id="Path_79" data-name="Path 79" d="M36.625,44.316l-.982-2.4.74-.493,1.833,1.834a1.223,1.223,0,0,0,1.681,0L43.257,39.9a1.187,1.187,0,0,0,0-1.681l-1.83-1.83.4-.6,2.386,1a1.188,1.188,0,0,0,1.556-.637l1.837-4.384a1.188,1.188,0,0,0-.637-1.555l-2.39-1,.176-.872h2.592a1.189,1.189,0,0,0,1.188-1.188V22.393A1.189,1.189,0,0,0,47.351,21.2H44.762l-.139-.71,2.395-.98a1.188,1.188,0,0,0,.649-1.55l-1.8-4.4a1.188,1.188,0,0,0-1.55-.649l-2.4.982-.492-.74,1.833-1.833a1.187,1.187,0,0,0,0-1.681L39.9,6.283a1.187,1.187,0,0,0-1.681,0l-1.83,1.83-.6-.4,1-2.386a1.188,1.188,0,0,0-.637-1.556L31.764,1.931a1.188,1.188,0,0,0-1.555.637l-1,2.39-.872-.177V2.188A1.189,1.189,0,0,0,27.146,1H22.393A1.189,1.189,0,0,0,21.2,2.188V4.777l-.71.139-.98-2.395a1.188,1.188,0,0,0-1.55-.649l-4.4,1.8a1.187,1.187,0,0,0-.649,1.55l.982,2.4-.74.492L11.323,6.282a1.187,1.187,0,0,0-1.681,0L6.282,9.643a1.187,1.187,0,0,0,0,1.681l1.83,1.83-.4.6-2.388-1a1.188,1.188,0,0,0-1.556.637L1.928,17.775a1.188,1.188,0,0,0,.637,1.555l2.39,1-.175.872H2.188A1.189,1.189,0,0,0,1,22.393v4.754a1.189,1.189,0,0,0,1.188,1.188H4.777l.139.71-2.395.98a1.188,1.188,0,0,0-.649,1.55l1.8,4.4a1.186,1.186,0,0,0,1.55.649l2.4-.982.492.74L6.283,38.215a1.187,1.187,0,0,0,0,1.681l3.361,3.362a1.188,1.188,0,0,0,1.681,0l1.83-1.83.6.4-1,2.388a1.188,1.188,0,0,0,.637,1.556l4.384,1.837a1.186,1.186,0,0,0,1.555-.636l1-2.392.872.175v2.593a1.188,1.188,0,0,0,1.188,1.188h4.754a1.188,1.188,0,0,0,1.188-1.188V44.762l.71-.139.98,2.395a1.188,1.188,0,0,0,1.55.65l4.4-1.8a1.191,1.191,0,0,0,.65-1.551Zm-4.85.7-.9-2.2a1.2,1.2,0,0,0-1.329-.717l-2.628.517a1.19,1.19,0,0,0-.959,1.167v2.377H23.581V43.785a1.187,1.187,0,0,0-.954-1.165l-2.78-.56a1.187,1.187,0,0,0-1.331.706L17.6,44.961,15.4,44.042l.919-2.193a1.188,1.188,0,0,0-.434-1.446L13.666,38.91a1.185,1.185,0,0,0-1.5.146l-1.682,1.682L8.8,39.056l1.681-1.681a1.188,1.188,0,0,0,.149-1.5L9.06,33.516a1.186,1.186,0,0,0-1.439-.442l-2.2.9-.9-2.2,2.2-.9a1.188,1.188,0,0,0,.715-1.329l-.517-2.628a1.186,1.186,0,0,0-1.165-.959H3.377V23.581H5.754a1.187,1.187,0,0,0,1.165-.954l.559-2.78a1.19,1.19,0,0,0-.706-1.331L4.58,17.6,5.5,15.406l2.192.919a1.19,1.19,0,0,0,1.446-.434l1.493-2.224a1.187,1.187,0,0,0-.146-1.5L8.8,10.483,10.483,8.8l1.682,1.681a1.189,1.189,0,0,0,1.5.149l2.362-1.57a1.19,1.19,0,0,0,.442-1.439l-.9-2.2,2.2-.9.9,2.2A1.183,1.183,0,0,0,20,7.437l2.628-.517a1.188,1.188,0,0,0,.958-1.166V3.377h2.377V5.754a1.187,1.187,0,0,0,.954,1.165l2.78.559a1.187,1.187,0,0,0,1.331-.706l.918-2.192,2.193.919L33.215,7.69a1.188,1.188,0,0,0,.434,1.446l2.224,1.493a1.187,1.187,0,0,0,1.5-.146L39.056,8.8l1.681,1.681-1.681,1.682a1.188,1.188,0,0,0-.149,1.5l1.57,2.362a1.187,1.187,0,0,0,1.439.442l2.2-.9.9,2.2-2.2.9A1.188,1.188,0,0,0,42.1,20l.517,2.628a1.188,1.188,0,0,0,1.166.958h2.377v2.377H43.785a1.187,1.187,0,0,0-1.165.954l-.559,2.78a1.19,1.19,0,0,0,.706,1.331l2.192.918-.919,2.193-2.192-.919a1.189,1.189,0,0,0-1.446.434L38.91,35.872a1.187,1.187,0,0,0,.146,1.5l1.681,1.681-1.681,1.682-1.682-1.682a1.185,1.185,0,0,0-1.5-.149l-2.362,1.572a1.188,1.188,0,0,0-.441,1.439l.9,2.2Z" transform="translate(0)" fill="#f85f00"/>
    <path id="Path_80" data-name="Path 80" d="M29.2,52.131h-.9l.637-.637a1.188,1.188,0,0,0,0-1.681l-3.362-3.361a1.187,1.187,0,0,0-1.681,0l-.636.636v-.9A1.188,1.188,0,0,0,22.073,45H17.319a1.188,1.188,0,0,0-1.188,1.188v.9l-.637-.636a1.187,1.187,0,0,0-1.681,0l-3.362,3.361a1.188,1.188,0,0,0,0,1.681l.638.637h-.9A1.188,1.188,0,0,0,9,53.319v4.754a1.188,1.188,0,0,0,1.188,1.188h.9l-.636.636a1.187,1.187,0,0,0,0,1.681l3.362,3.362a1.188,1.188,0,0,0,1.681,0l.636-.636v.9a1.188,1.188,0,0,0,1.188,1.188h4.754A1.188,1.188,0,0,0,23.262,65.2v-.9l.637.636a1.223,1.223,0,0,0,1.681,0l3.362-3.362a1.187,1.187,0,0,0,0-1.681l-.637-.636h.9a1.188,1.188,0,0,0,1.188-1.188V53.319A1.188,1.188,0,0,0,29.2,52.131Zm-1.188,4.754h-1.6a1.189,1.189,0,0,0-1.121.793,5.829,5.829,0,0,1-.239.574,1.189,1.189,0,0,0,.233,1.352l1.134,1.134L24.738,62.42,23.6,61.286a1.182,1.182,0,0,0-1.35-.233,5.819,5.819,0,0,1-.576.239,1.192,1.192,0,0,0-.793,1.121v1.6H18.508v-1.6a1.189,1.189,0,0,0-.793-1.121,5.868,5.868,0,0,1-.576-.239,1.187,1.187,0,0,0-1.35.233L14.655,62.42l-1.682-1.682L14.107,59.6a1.191,1.191,0,0,0,.233-1.352,5.554,5.554,0,0,1-.239-.574,1.192,1.192,0,0,0-1.121-.793h-1.6V54.508h1.6a1.189,1.189,0,0,0,1.121-.793,6.025,6.025,0,0,1,.24-.578,1.189,1.189,0,0,0-.233-1.35l-1.134-1.134,1.682-1.681,1.134,1.134a1.187,1.187,0,0,0,1.35.233,5.823,5.823,0,0,1,.576-.239,1.192,1.192,0,0,0,.792-1.121v-1.6h2.377v1.6a1.189,1.189,0,0,0,.793,1.121,5.872,5.872,0,0,1,.576.239,1.187,1.187,0,0,0,1.35-.233l1.134-1.134,1.682,1.681-1.134,1.134a1.189,1.189,0,0,0-.233,1.35,6.024,6.024,0,0,1,.24.578,1.189,1.189,0,0,0,1.12.793h1.6Z" transform="translate(1.508 6.607)" fill="#f85f00"/>
    <path id="Path_81" data-name="Path 81" d="M18.754,50a4.754,4.754,0,1,0,4.754,4.754A4.759,4.759,0,0,0,18.754,50Zm0,7.131a2.377,2.377,0,1,1,2.377-2.377A2.379,2.379,0,0,1,18.754,57.131Z" transform="translate(2.044 7.55)" fill="#f85f00"/>
  </g>
</svg>
