<svg xmlns="http://www.w3.org/2000/svg" width="139.745" height="134.002" viewBox="0 0 139.745 134.002">
  <g id="linkedin" transform="translate(10 13.001)">
    <ellipse id="Ellipse_23" data-name="Ellipse 23" cx="68.873" cy="66.001" rx="68.873" ry="66.001" transform="translate(-9 -12.001)" fill="none" stroke="#f1f2f2" stroke-width="2"/>
    <g id="Group_12" data-name="Group 12" transform="translate(33.855 29.827)">
      <path id="Path_108" data-name="Path 108" d="M78.678,54.2V73.287H67.614v-17.8c0-4.471-1.6-7.523-5.6-7.523A6.052,6.052,0,0,0,56.335,52a7.573,7.573,0,0,0-.366,2.7V73.286H44.9s.149-30.155,0-33.276H55.97v4.716c-.022.037-.054.073-.073.109h.073v-.109a10.986,10.986,0,0,1,9.972-5.5c7.279,0,12.737,4.756,12.737,14.975ZM33.329,23.969c-3.785,0-6.261,2.484-6.261,5.749,0,3.195,2.4,5.751,6.116,5.751h.072c3.859,0,6.259-2.556,6.259-5.751-.073-3.264-2.4-5.749-6.185-5.749Zm-5.6,49.318H38.786V40.009H27.726Z" transform="translate(-27.068 -23.969)" fill="#f1f2f2"/>
    </g>
  </g>
</svg>
