<svg xmlns="http://www.w3.org/2000/svg" width="139.745" height="134.002" viewBox="0 0 139.745 134.002">
  <g id="mail" transform="translate(306.967 352.252)">
    <g id="Group_13" data-name="Group 13" transform="translate(-5 57)">
      <path id="Path_109" data-name="Path 109" d="M63.839,61H6.151A6.157,6.157,0,0,0,0,67.142v40.944a6.156,6.156,0,0,0,6.151,6.142H63.839a6.156,6.156,0,0,0,6.151-6.142V67.142A6.156,6.156,0,0,0,63.839,61Zm-.849,4.094L35.126,92.913,7.021,65.094ZM4.1,107.237V67.97l19.75,19.549ZM7,110.132,26.763,90.4l6.925,6.854a2.053,2.053,0,0,0,2.894-.006l6.752-6.741,19.656,19.624Zm58.888-2.9L46.234,87.613,65.889,67.989Z" transform="translate(-266.958 -429.674)" fill="#fff"/>
    </g>
    <ellipse id="Ellipse_23" data-name="Ellipse 23" cx="68.873" cy="66.001" rx="68.873" ry="66.001" transform="translate(-305.967 -351.252)" fill="none" stroke="#f1f2f2" stroke-width="2"/>
  </g>
</svg>
