<svg xmlns="http://www.w3.org/2000/svg" width="90.546" height="81.076" viewBox="0 0 90.546 81.076">
  <g id="problemsolvingicon" transform="translate(-497.402 -2483.961)">
    <path id="Path_27" data-name="Path 27" d="M-33.1,0H14.993L35.912,41.166,14.993,81.076H-33.1l-21.536-39.91Z" transform="translate(552.036 2483.961)" fill="#f85f00"/>
    <g id="Puzzle_icon" data-name="Puzzle icon" transform="translate(518.72 2500.994)">
      <g id="Group_2" data-name="Group 2" transform="translate(7.94 7.94)">
        <g id="Group_1" data-name="Group 1">
          <path id="Path_25" data-name="Path 25" d="M118.9,80H99.849a.794.794,0,0,0-.794.794V87.94a.794.794,0,0,0,1.045.753l1-.333a2.064,2.064,0,1,1,0,3.924l-1-.333a.794.794,0,0,0-1.045.753v6.352H92.7a.794.794,0,0,0-.753,1.045l.333,1a2.064,2.064,0,1,1-3.924,0l.333-1a.794.794,0,0,0-.753-1.045H80.794a.794.794,0,0,0-.794.794V118.9a.794.794,0,0,0,.794.794H118.9a.794.794,0,0,0,.794-.794V80.794A.794.794,0,0,0,118.9,80ZM99.1,111.508a.8.8,0,0,0-.041.25v6.352H81.588V100.643h5.25a3.652,3.652,0,1,0,6.966,0h5.251v6.352a.794.794,0,0,0,1.045.753l1-.333a2.064,2.064,0,1,1,0,3.924l-1-.333A.794.794,0,0,0,99.1,111.508Zm19.014,6.6H100.643v-5.25a3.652,3.652,0,1,0,0-6.966v-5.25h6.352a.794.794,0,0,0,.753-1.045l-.333-1a2.064,2.064,0,1,1,3.924,0l-.333,1a.794.794,0,0,0,.753,1.045h6.352V118.11Zm0-19.055h-5.25a3.652,3.652,0,1,0-6.966,0h-5.25V93.8a3.66,3.66,0,1,0,0-6.966V81.588H118.11Z" transform="translate(-80 -80)" fill="#fff" stroke="#fff" stroke-width="1"/>
        </g>
      </g>
      <g id="Group_4" data-name="Group 4">
        <g id="Group_3" data-name="Group 3">
          <path id="Path_26" data-name="Path 26" d="M22.84,6.838a3.652,3.652,0,0,0-2.2,0V.794A.794.794,0,0,0,19.849,0H.794A.794.794,0,0,0,0,.794V19.849a.794.794,0,0,0,.794.794H6.838a3.652,3.652,0,1,0,6.966,0h6.044a.794.794,0,0,0,.794-.794V13.8a3.652,3.652,0,0,0,2.2-6.966Zm-.458,5.445a2.064,2.064,0,0,1-1.284,0l-1-.333a.794.794,0,0,0-1.045.753v6.352H12.7a.794.794,0,0,0-.753,1.045l.333,1a2.064,2.064,0,1,1-3.924,0l.333-1a.794.794,0,0,0-.753-1.045H1.588V1.588H19.055V7.94a.794.794,0,0,0,1.045.753l1-.333a2.064,2.064,0,0,1,1.284,3.924Z" fill="#fff" stroke="#fff" stroke-width="1"/>
        </g>
      </g>
    </g>
  </g>
</svg>
