<svg xmlns="http://www.w3.org/2000/svg" width="72" height="72" viewBox="0 0 72 72">
  <g id="warehouse_icon" data-name="warehouse icon" transform="translate(-7.999 -8)">
    <rect id="Rectangle_39" data-name="Rectangle 39" width="3" height="2" transform="translate(24.475 73.418)" fill="#f85f00"/>
    <path id="Path_101" data-name="Path 101" d="M51.165,242.666H31.333v-17.5A1.167,1.167,0,0,0,30.166,224h-21A1.167,1.167,0,0,0,8,225.167V262.5a1.167,1.167,0,0,0,1.167,1.167h42a1.167,1.167,0,0,0,1.167-1.167V243.833A1.167,1.167,0,0,0,51.165,242.666ZM38.332,245H43v4.667H38.332Zm-21-18.666H22V231H17.333Zm-7,0H15v5.833a1.167,1.167,0,0,0,1.167,1.167h7a1.167,1.167,0,0,0,1.167-1.167v-5.833H29v16.333H10.333Zm7,18.666H22v4.667H17.333Zm-7,0H15v5.833A1.167,1.167,0,0,0,16.166,252h7a1.167,1.167,0,0,0,1.167-1.167V245H29v16.333H10.333ZM50,261.332H31.333V245H36v5.833A1.167,1.167,0,0,0,37.166,252h7a1.167,1.167,0,0,0,1.167-1.167V245H50Z" transform="translate(-0.001 -183.666)" fill="#f85f00"/>
    <rect id="Rectangle_40" data-name="Rectangle 40" width="3" height="2" transform="translate(46.103 73.418)" fill="#f85f00"/>
    <rect id="Rectangle_41" data-name="Rectangle 41" width="3" height="2" transform="translate(24.475 54.133)" fill="#f85f00"/>
    <path id="Path_102" data-name="Path 102" d="M78.517,23.311A1.189,1.189,0,0,0,80,22.137V17.442A1.184,1.184,0,0,0,79.08,16.3L44.28,8.033a1.214,1.214,0,0,0-.563,0L8.918,16.3A1.184,1.184,0,0,0,8,17.442V22.13A1.191,1.191,0,0,0,9.48,23.311l2.119-.5v14.7H14V22.238l30-7.123,30,7.123v55.4H66.8V31.606a1.19,1.19,0,0,0-1.2-1.18H22.4a1.19,1.19,0,0,0-1.2,1.18v4.721a1.19,1.19,0,0,0,1.2,1.18h42v2.361h-30v2.361h30V44.59h-30v2.361h30v2.361h-30v2.361h30V77.639H56V80H80V77.639H76.4V22.808ZM23.6,35.147V32.787H64.4v2.361ZM44,12.721a1.21,1.21,0,0,0-.282.033L10.4,20.665V18.372L44,10.394l33.6,7.978v2.293L44.28,12.754A1.21,1.21,0,0,0,44,12.721Z" transform="translate(0 0)" fill="#f85f00"/>
    <path id="Path_103" data-name="Path 103" d="M216.166,95a3.5,3.5,0,1,0,0-7H211.5a3.5,3.5,0,0,0,0,7Zm-5.833-3.5a1.168,1.168,0,0,1,1.167-1.167h4.667a1.167,1.167,0,0,1,0,2.333H211.5A1.168,1.168,0,0,1,210.333,91.5Z" transform="translate(-169.834 -68.182)" fill="#f85f00"/>
  </g>
</svg>
