<svg xmlns="http://www.w3.org/2000/svg" width="72" height="72" viewBox="0 0 72 72">
  <g id="WebDesign_Icon" data-name="WebDesign Icon" transform="translate(-16 -16)">
    <path id="Path_82" data-name="Path 82" d="M88,70V19.6A3.6,3.6,0,0,0,84.4,16H19.6A3.6,3.6,0,0,0,16,19.6V70a3.6,3.6,0,0,0,3.6,3.6H43.383l-2,12H36.4a1.2,1.2,0,1,0,0,2.4H67.6a1.2,1.2,0,0,0,0-2.4H62.617l-2-12H70.909L81.347,84.038a3.6,3.6,0,0,0,5.091,0h0a3.6,3.6,0,0,0,0-5.091L81.091,73.6H84.4A3.6,3.6,0,0,0,88,70ZM61.831,61.128l1.7-1.7,5.091,5.091-1.7,1.7ZM59.766,59.8l-3.278-.819A3.584,3.584,0,0,1,53.854,56.3L52.4,50l6.3,1.453a3.584,3.584,0,0,1,2.683,2.635l.819,3.278Zm4.845-2.678-.9-3.615a5.974,5.974,0,0,0-4.472-4.391L51.07,47.231a1.2,1.2,0,0,0-1.439,1.439l1.885,8.166A6,6,0,0,0,52.647,59.2H18.4V28H85.6V59.2H66.691ZM19.6,18.4H84.4a1.2,1.2,0,0,1,1.2,1.2v6H18.4v-6A1.2,1.2,0,0,1,19.6,18.4ZM60.183,85.6H43.817l2-12H58.183ZM19.6,71.2A1.2,1.2,0,0,1,18.4,70V61.6H57.074l2.446.611L68.509,71.2ZM84.741,82.341a1.2,1.2,0,0,1-1.7,0L68.619,67.917l1.7-1.7L84.741,80.645A1.2,1.2,0,0,1,84.741,82.341ZM69.091,61.6H85.6V70a1.2,1.2,0,0,1-1.2,1.2H78.691Z" fill="#f85f00"/>
    <path id="Path_83" data-name="Path 83" d="M237.974,336h-4.779a1.195,1.195,0,0,0,0,2.39h4.779a1.195,1.195,0,0,0,0-2.39Z" transform="translate(-183.584 -271.993)" fill="#f85f00"/>
    <circle id="Ellipse_20" data-name="Ellipse 20" cx="1.026" cy="1.026" r="1.026" transform="translate(21.053 21.053)" fill="#f85f00"/>
    <ellipse id="Ellipse_21" data-name="Ellipse 21" cx="0.684" cy="1.026" rx="0.684" ry="1.026" transform="translate(25.843 21.053)" fill="#f85f00"/>
    <ellipse id="Ellipse_22" data-name="Ellipse 22" cx="1.368" cy="1.026" rx="1.368" ry="1.026" transform="translate(30.012 21.053)" fill="#f85f00"/>
    <path id="Path_84" data-name="Path 84" d="M97.195,114.39h2.39a1.195,1.195,0,1,0,0-2.39h-2.39a1.195,1.195,0,0,0,0,2.39Z" transform="translate(-67.996 -81.598)" fill="#f85f00"/>
    <path id="Path_85" data-name="Path 85" d="M145.195,114.39h2.39a1.195,1.195,0,1,0,0-2.39h-2.39a1.195,1.195,0,0,0,0,2.39Z" transform="translate(-108.794 -81.598)" fill="#f85f00"/>
    <path id="Path_86" data-name="Path 86" d="M51.584,258.39H50.39v-1.195a1.195,1.195,0,1,0-2.39,0v2.39a1.2,1.2,0,0,0,1.195,1.195h2.39a1.195,1.195,0,1,0,0-2.39Z" transform="translate(-27.221 -203.989)" fill="#f85f00"/>
    <path id="Path_87" data-name="Path 87" d="M99.584,272h-2.39a1.195,1.195,0,1,0,0,2.39h2.39a1.195,1.195,0,1,0,0-2.39Z" transform="translate(-67.996 -217.594)" fill="#f85f00"/>
    <path id="Path_88" data-name="Path 88" d="M147.584,272h-2.39a1.195,1.195,0,1,0,0,2.39h2.39a1.195,1.195,0,1,0,0-2.39Z" transform="translate(-108.794 -217.594)" fill="#f85f00"/>
    <path id="Path_89" data-name="Path 89" d="M195.584,112h-2.39a1.195,1.195,0,0,0,0,2.39h1.195v1.195a1.195,1.195,0,1,0,2.39,0v-2.39A1.2,1.2,0,0,0,195.584,112Z" transform="translate(-149.592 -81.596)" fill="#f85f00"/>
    <path id="Path_90" data-name="Path 90" d="M209.195,160A1.2,1.2,0,0,0,208,161.195v2.39a1.195,1.195,0,1,0,2.39,0v-2.39A1.2,1.2,0,0,0,209.195,160Z" transform="translate(-163.196 -122.393)" fill="#f85f00"/>
    <path id="Path_91" data-name="Path 91" d="M209.195,208A1.2,1.2,0,0,0,208,209.195v2.39a1.195,1.195,0,0,0,2.39,0v-2.39A1.2,1.2,0,0,0,209.195,208Z" transform="translate(-163.196 -163.191)" fill="#f85f00"/>
    <path id="Path_92" data-name="Path 92" d="M195.584,256a1.2,1.2,0,0,0-1.195,1.195v1.195h-1.195a1.195,1.195,0,1,0,0,2.39h2.39a1.2,1.2,0,0,0,1.195-1.195v-2.39A1.2,1.2,0,0,0,195.584,256Z" transform="translate(-149.592 -203.989)" fill="#f85f00"/>
    <path id="Path_93" data-name="Path 93" d="M49.195,116.779a1.2,1.2,0,0,0,1.195-1.195V114.39h1.195a1.195,1.195,0,1,0,0-2.39h-2.39A1.2,1.2,0,0,0,48,113.195v2.39A1.2,1.2,0,0,0,49.195,116.779Z" transform="translate(-27.221 -81.596)" fill="#f85f00"/>
    <path id="Path_94" data-name="Path 94" d="M49.195,164.779a1.2,1.2,0,0,0,1.195-1.195v-2.39a1.195,1.195,0,0,0-2.39,0v2.39A1.2,1.2,0,0,0,49.195,164.779Z" transform="translate(-27.221 -122.393)" fill="#f85f00"/>
    <path id="Path_95" data-name="Path 95" d="M49.195,212.779a1.2,1.2,0,0,0,1.195-1.195v-2.39a1.195,1.195,0,0,0-2.39,0v2.39A1.2,1.2,0,0,0,49.195,212.779Z" transform="translate(-27.221 -163.191)" fill="#f85f00"/>
    <path id="Path_96" data-name="Path 96" d="M248.363,192h-7.169a1.195,1.195,0,1,0,0,2.39h7.169a1.195,1.195,0,0,0,0-2.39Z" transform="translate(-190.378 -149.596)" fill="#f85f00"/>
    <path id="Path_97" data-name="Path 97" d="M340.311,192H321.195a1.195,1.195,0,0,0,0,2.39h19.116a1.195,1.195,0,1,0,0-2.39Z" transform="translate(-258.285 -149.596)" fill="#f85f00"/>
    <path id="Path_98" data-name="Path 98" d="M353.922,224H337.195a1.195,1.195,0,1,0,0,2.39h16.727a1.195,1.195,0,0,0,0-2.39Z" transform="translate(-271.896 -176.795)" fill="#f85f00"/>
    <path id="Path_99" data-name="Path 99" d="M272.259,112H241.195A1.2,1.2,0,0,0,240,113.195v7.169a1.2,1.2,0,0,0,1.195,1.195h31.064a1.2,1.2,0,0,0,1.195-1.195v-7.169A1.2,1.2,0,0,0,272.259,112Zm-1.195,7.169H242.39V114.39h28.675Z" transform="translate(-190.233 -81.59)" fill="#f85f00"/>
    <path id="Path_100" data-name="Path 100" d="M96.727,145.195A1.2,1.2,0,0,0,95.532,144H81.195A1.2,1.2,0,0,0,80,145.195v14.337a1.2,1.2,0,0,0,1.195,1.195H95.532a1.2,1.2,0,0,0,1.195-1.195Zm-2.39,13.143H82.39V146.39H94.337Z" transform="translate(-54.442 -108.775)" fill="#f85f00"/>
  </g>
</svg>
